<svg width="24" height="24" viewBox="0 0 24 24" fill="none" xmlns="http://www.w3.org/2000/svg">
<path d="M3.56075 0.5H2.45093C1.17173 0.5 0.5 1.17173 0.5 2.44509V3.55491C0.5 4.82827 1.17173 5.5 2.44509 5.5H3.55491C4.82827 5.5 5.5 4.82827 5.5 3.55491V2.44509C5.50584 1.17173 4.83411 0.5 3.56075 0.5Z" fill="#2C4E6C"/>
<path d="M12.5549 0.5H11.4451C10.1717 0.5 9.5 1.17173 9.5 2.44509V3.55491C9.5 4.82827 10.1717 5.5 11.4451 5.5H12.5549C13.8283 5.5 14.5 4.82827 14.5 3.55491V2.44509C14.5 1.17173 13.8283 0.5 12.5549 0.5Z" fill="#2C4E6C"/>
<path d="M21.5549 0.5H20.4451C19.1717 0.5 18.5 1.17173 18.5 2.44509V3.55491C18.5 4.82827 19.1717 5.5 20.4451 5.5H21.5549C22.8283 5.5 23.5 4.82827 23.5 3.55491V2.44509C23.5 1.17173 22.8283 0.5 21.5549 0.5Z" fill="#2C4E6C"/>
<path d="M3.56075 9.5H2.45093C1.17173 9.5 0.5 10.1717 0.5 11.4451V12.5549C0.5 13.8283 1.17173 14.5 2.44509 14.5H3.55491C4.82827 14.5 5.5 13.8283 5.5 12.5549V11.4451C5.50584 10.1717 4.83411 9.5 3.56075 9.5Z" fill="#2C4E6C"/>
<path d="M12.5549 9.5H11.4451C10.1717 9.5 9.5 10.1717 9.5 11.4451V12.5549C9.5 13.8283 10.1717 14.5 11.4451 14.5H12.5549C13.8283 14.5 14.5 13.8283 14.5 12.5549V11.4451C14.5 10.1717 13.8283 9.5 12.5549 9.5Z" fill="#2C4E6C"/>
<path d="M21.5549 9.5H20.4451C19.1717 9.5 18.5 10.1717 18.5 11.4451V12.5549C18.5 13.8283 19.1717 14.5 20.4451 14.5H21.5549C22.8283 14.5 23.5 13.8283 23.5 12.5549V11.4451C23.5 10.1717 22.8283 9.5 21.5549 9.5Z" fill="#2C4E6C"/>
<path d="M3.56075 18.5H2.45093C1.17173 18.5 0.5 19.1717 0.5 20.4451V21.5549C0.5 22.8283 1.17173 23.5 2.44509 23.5H3.55491C4.82827 23.5 5.5 22.8283 5.5 21.5549V20.4451C5.50584 19.1717 4.83411 18.5 3.56075 18.5Z" fill="#2C4E6C"/>
<path d="M12.5549 18.5H11.4451C10.1717 18.5 9.5 19.1717 9.5 20.4451V21.5549C9.5 22.8283 10.1717 23.5 11.4451 23.5H12.5549C13.8283 23.5 14.5 22.8283 14.5 21.5549V20.4451C14.5 19.1717 13.8283 18.5 12.5549 18.5Z" fill="#2C4E6C"/>
<path d="M21.5549 18.5H20.4451C19.1717 18.5 18.5 19.1717 18.5 20.4451V21.5549C18.5 22.8283 19.1717 23.5 20.4451 23.5H21.5549C22.8283 23.5 23.5 22.8283 23.5 21.5549V20.4451C23.5 19.1717 22.8283 18.5 21.5549 18.5Z" fill="#2C4E6C"/>
</svg>
